<svg xmlns="http://www.w3.org/2000/svg" width="250" height="120" version="1"><path d="M69.5 3.6c-2 0-4.7.3-6.5 1C56.8 7 45.4 20.3 45.4 25.2c0 1.2 1 3 2.5 4 1.2 1 3 .4 3 .4l-7 12c-6.7 12.5-10 12.7-15 17-2.7.2-4.5 0-6.6.2-8.2.6-14.4 3.8-17 8-3 4.8-2.7 11.4.7 16.5C15 97 45.5 103 78.7 97c4-.6 6.2-1 8.3-1.6 2.2 1 3.5 1 6 1.8 4 1 10 1.5 18.5 1.5 4.3 0 9.2-.2 11.6 0l7 2.2c3.3 1 9 3 12.7 4 3.7 1 5.6 2 7 2.4-.5.4-6 2.7-11 4.6-5 2-10.5 4.3-12 5.2-3.3 2-2.4 1.6 13.2-4.3l12-4.6 8 1c9.8 1.5 31.4 1.5 37 .2 10.4-2.4 20.4-9 20.4-13.5 0-6.8-12.8-8.5-29.3-3.7-5 1.4-14.5 5-21.2 8-6.7 3-13 5.3-14 5.3-2.4 0-18-4.4-22.2-6.2l-3.3-1.4 4.3-1.3c2.4-.7 6.8-2.6 10-4 2.2-1.2 4.5-2 6.3-3.3 3.4.5 7.6.4 20 .3 23.2 0 31.2-1 46.7-6.2 11-3.5 26.5-11 29-13.7 2.5-2.7 3-4-3-5-2.8-.3-5.7-.3-8.6-.3 0-2-1-2.8-2-5-2-3.8-.8-6-.2-7.6h4.2c9.3-.8 11.8-6.4 2.8-6.4h-3c.7-1.3 1-2.7 2.7-5.7 1.2-2 2-3.8 1.6-4-1-1-8.4 1.5-14.3 4.8-9.8 5.6-5.4 0 6.6-8.4 9.4-6.5 14-13.7 9.7-15.4-2.4-1-7 3-14.6 12.6-4.3 5.3-5.8 7.6-7.4 9l-4.2.6c-5.7 1-10.7 0-12.8-2.5-.7-.7-1-1-1.5-2 1.4-1 1.2-.6 1.8-1 3.4-2 2.4-3-1.3-1.5-1 .3-2 .8-3 1.4h-10c-.5-.3-.7-1.2-1-1.5-4.5-3.3-9.4-.7-15 8.2-1.6 2.4-2 3.5-2.4 4.7l-7 .6v1h2.7c1.2 0 3-.2 3.7 0 0 .8-.4 1.8-.6 4-.3 4.5 2.3 7 4.8 5.4 2.6-1.6 6-7 8.3-13.4 1.6-4.4 2.8-6 4.8-6.8.4 0 .5-.2 1.4-1 3.4 0 8.3-.3 9.5 0 0 .2-2.3 2.8-4.2 5.3-1.8 2.5-4.2 7-5 9.8-1.8 5-1.8 5.2 0 6.5 2.4 1.7 2.7 1.7 5.8-.8 5-4.3 7.2-8.4 6.8-16.8l3.5 1c1.4.5 5 1 8 1h5.6c0 .5-3.2 5.3-6.7 10-3.6 4.6-6.6 9-6.6 9.8 0 .4-.4-.2.4 1.6-1.3 1-5 3.6-6 6.5l-8.5 1 .3 1.3c2.6-.3 5.3-.8 8-1-.2 1 0 1.2.4 2 .3 1 2 2.8 3.6 3.8s1.7 1 3.6 1.3c-.6.6-1.7 1-2.6 1.5-3.6 2-23.3 7-29.7 7.7-4.7.5-7.7.2-11.5-1-5-1.7-5-2-3.5-3.6 1-1 2-4 2-6.3.6-3.6.3-4.8-1.5-6.6-2-2-3-2.2-8.7-2-3.3.3-5.6.8-6.6 1.4-.4-10.2 5.3-23 11.4-33.3 2.3-3.7 3-4.5 4.7-6.6 2-.2 4.6-.4 8-1 8.7-1 17-6.3 17-10.5 0-3.2-4-6-7.7-5.5-4 .7-11.8 6.3-16.5 12-1.3 1.7-2 2-2.8 3.8H148l4.4 1.5h3.5l-3.7 5.3C145.3 44 141.3 54 140 65c-.3 1.3-.2 3-.2 4.7l-2 2.7c-.7 1.5-1.4 4-1.4 5.4 0 1.7 1.3 4.4 3 6.4 1.8 2.2 4.4 3.2 6.7 4.5-1 1-10.2 4.8-17.6 5.8l-7.5 1-9.6-4.2c-6-2.7-8.3-4.3-10-5 .5-.5 1-1.7 1-2 2.6-11 .2-14.3-6-17-2.2-1-5.6-1.5-7-1.4-4.3 0-9.2 2.6-10.5 5.3-.8 1-1.2 1.3-2.3 3L67 69.8c-10.8-5-18.2-7.7-25.3-9.3l-6.2-1.5c1-1 2.3-2.5 4-4.8 2-2.8 5.4-5.6 9.7-8L57 42c-.6 2.8-.8 5.5 1 5.5s4.8-3.4 4.8-3.4c4-3 4.8-3.2 4.4-1.6-.3 1-.2 2.6.3 3.3 1 1.5 6.5-2 12-7.6 5.2-5.3 5.5-4 .5 3s-5.3 7.6-3.2 7.6c.8 0 2.4-1.5 3.6-3.4 3.5-5.7 13.3-13.7 14.8-12 1.2 1-3 7-6 9-2.7 1.5-3 2-1.4 2.2 1.2.3 3.7-1.4 7-4.8 5.7-5.6 9-8 12-8 1.4 0 1.5.3.5 2.3-.6 1-2.3 3.4-3.6 5-3.6 4.3-7.4 12.5-7 15 .3 2.8 3.6 3.2 8 1 5-2.6 16-12.6 20.8-19.3l4-5.4c2.4 0 9-6.5 12.3-11 3-4 3.3-4.2 1.5-4.2-5 .2-12.8 9.3-14.6 13.7l-4 .6c-5 .7-5.2 0-2.8-6.7 1.7-5 1.8-7 .4-9l-.8-1.2c-.4 0-1 .6-1.8 1.4l-1.6 1.8 1.2 1.5c1 1.5 1.2 2.6 0 6.7-.6 2.7-1.4 5.6 0 6.6 1.5 1 5.4.2 8.3.2 0 1.6-14.7 15.8-19.7 19-5.2 3.3-8.6 4-8.6 1.8 0-.7 1.7-4 3.7-7.2s4.4-7 5.2-8.5c3.4-5.6-.7-7.2-7-2.8-3.4 2.4-3.8 2.4-3.8 0 0-2.7-2-2.6-6.4.4-4.7 3.3-5 3.3-3-.4.8-1.6 1-3 .5-3s-4.6 3.2-9 7c-4.5 4-8.6 7-9 7-3 0 .6-7.3 6-12.2 1-1 2-2.7 2-3.8 0-4.7-6-3.2-13.4 3.6-2 2-4.6 3.4-5.5 3.4-1 0-2.8.6-3.8 1.4-1.4 1.2-1.6 2-.7 1.5.2 0 .5-.8 1-1 2-1 3-1 4.6-.8-.2 1.4-1 1.5-1.7 2.7-1.4 2-12.2 8.2-14 8.2-.4 0 1.2-3.6 3.4-8 2.7-5.3 3.3-7 5.2-9 2.2-.8 3.3-1 5.3-2 3.5-1.5 6.4-3.3 6.4-3.8s-1.6 0-3.7 1C58 26.5 55.4 27 55.4 26S62.8 14.4 67 9.7c2.4-2.7 4.4-5 4.4-5.5 0-.3-.8-.5-2-.6zm0 1c-.3 1-2 3-4.6 6-2.7 3-6.5 8-8.7 11.2-2 3-3 4-3.7 5.5-1 0-2 .3-2.5-.3-1.2-1.3-.6-4 2-9 3.3-6.2 6-9 10.7-11.5C65 5.3 67 4.3 69.4 4.7zm108 7.3c1-.2 1.7 0 3 .8 5.6 3.2 2.4 8.4-7.5 11.8-3.3 1-7.4 2-9.3 2h-3.5l5-5.8c3-3.3 7-6.7 9-7.7 1.6-.7 2.5-1 3.4-1zM239 18c.2 0 .6.2.8.5 1.8 1.7-2.3 7.6-8.2 11.7-5.5 3.8-8 5-9.2 5.7l6.7-8.6c5.4-6.5 8.2-9.2 10-9.2zm-100.4 3.2c-1 1.7-6.4 5.8-7.4 6.6 1-1.6.7-1.4 1.2-2.2 1-2 15-14.8 6.2-4.4zm-63 5.2c1 0 1.8.7 1.8 1.4 0 1.4-2.2 3.3-3.4 3.8-.2-.3-.5-1-1-1-.4.5-.8 2-1.7 2.7-1.4.2-4 0-5.5 0 2-2.8 6-5.8 10-7zm37 5c-.4 0-1.2 1.4-2 3-1.2 3.7 0 4 1.7.5 1.3-3 1.4-3.4.3-3.4zm69.5.2h.7c2.8.4 3.4 2.8 1 3.5-1.2.3-2.3 1.3-2.6 2.3-.4 2-8.7 5.5-9.8 6.2 2-4.5 5.4-9.6 11-12zM67.8 34.6h3L66.5 39c-6.2 6.4-8.2 6-4-1l2.2-3.3h3zm129.7 3.7c.6 0 1 .7 1 2 0 3.7-2 9.4-4.6 12.3-3.2 3.8-7 4.2-6 .6 2-7.3 7.3-15 9.6-15zm34.7.6c1.5-.2 1.6.8-.3 3-2.8 3-4.5 6.5-3.8 7.7l.5 1-1.2 3.3c-1 3-1 3.8.4 6 1 1.4 1.7 3 1.7 3.6v1c-1.5.2-6.7 0-10 0 0-1.7-1-2-1.5-2.3-3-2-8-2.2-11.2-1.3.5-.7.4-1 1.6-1.8.5-.4 2.3-3.2 4-6.4 2.4-4.5 4.3-6.5 8.3-9 5.3-3 9.5-5 11.4-5zm-52.7 2.8c-.2.7-1.6 4.8-4.7 8-1.4 1.6-3 2.8-4 2.8-1.4 0-1.3-4.2 0-6.8 1.7-1 6.6-3 8.7-4zm59.3 5c1.4 0 1.8.3 1.6 1-.2.7-2 1.5-4.2 1.6-2.8.3-3.7 0-3.4-1 .3-.7 2.2-1.4 4.3-1.6h1.6zm-123 2.8c-.6 0-1.8 1.5-2.7 3.7-1 2-1.6 4-1.5 4.2 0 1.2 5-5.4 5-6.6 0-1-.4-1.5-.8-1.4zm-82 8.2l-.3 1c-.5-.3-1-.3-1.8-.3.5-.5 1-1 2-.7zm-9.2 2c1 0 1.7 0 2.2.2-1.7 1.3-2.3 2.2-4.3 4-8.6 7.4-13.8 16.6-9.5 16.6 3 0 13-8.6 18-15.3 1.5-2 2.2-2.7 3-4l4.2.7c7 1 35.6 13.8 38 15-.6 2.3 1.5 9.4 5 13.4 1.8 2 3 3.5 4 4-.8.2-4 1-9.6 2-5.2 1.2-30.3 2.3-34 1.6C22 94.4 14 91.2 8.6 85 3 78.8 3.4 69 9.8 64.3c2.8-2 10.3-4.2 14.6-4.4zm4.2.5c1 0 2.3.3 3.4.6 0 1.7-10 12-14 14.6-5 3.4-5.6 3.6-5.6 1.7 0-2 14.4-17 16.2-17zM211.4 62c1.6 0 3 0 4 .6 1.6.8 2 1 1.8 2.4-1.2.3-4 1-8 1.5-6 1-7.3 1-8.8 1.4 2.5-6 7.6-5.7 11-6zm23.2 5.4c3.2 0 6.8.8 6.8 2.4 0 1.6-18 9.6-30.7 13.4-7.3 2.2-14.6 3.8-19.3 4l-7.5.5 8-2c4.3-1.2 11-3.7 14.6-5.6 2-1 3.3-1.8 5-2.8 2.3 0 4.6-1 5.5-1.2 7.6-1.6 13-4 14.4-8.3 1 0 2-.3 3.2-.3zM90 67.4c4.7 0 6 .7 8.6 3 2.8 2.6 3.3 3.7 3.3 7.6 0 3.8-1 6.2-2 7.5-2-1-5.2-2-11.4-5L78 74.8c1-1.5 1.5-3 3.3-4.5 3-2 4-3 8.7-3zm134.2.2h5c-1 1.2-1.6 2.6-4.5 4.3-3.5 2-7 3.2-10 3.4 2-2.7 4.7-5.5 5-7.6l4.5-.2zm-74 0c4.4 0 8 1.8 8.8 4.6.6 2.4-.2 6.2-1.8 8.2-1.6 2-4 1.5-7.8-1.3-4.8-3.4-5.7-7-6.2-9.7.3-.5 1.7-.8 2.5-1 1.5-.5 3-.6 4.5-.6zm62.7.8c2 0 3.7-.4 3.7 0 0 2-1.8 4.5-4.4 5.8-3.6 2-8 1.8-10.7 0-2-1.6-2.2-3.2-2.3-4.5l2.4-.5c2.6-.5 7.7-.6 11.2-.8zm-73 3c1 2 1.2 2.3 2.2 3.8 1.2 2 6.3 7.2 10.6 7.7.8 0 .7.8-.3 2-1.3 1.6-1.2 1.6 1 .6 2-1 3.3-.8 6 .4l3.4 1.5h-7.2c-3 0-4 .2-5.6 0 1.4-.7 3-1.5 2.4-1.6-.2-.2 2.7-3 2-2.6-1.6 1.3-5.7 3-6.4 3.7-.5.2-1.6-.3-1.7-.3l-3.8-1.8c-4-2-5.6-6-4.5-10.2.5-1.8 1-2.6 2-3.5zm-62.7 6.5c.7.3 6.2 2.6 11.2 5l9.2 4.4-4.3 3c-3 2.2-4.6 3-6 3.3-1.4-.4-2.2-1.2-4-2.7-4.2-3.5-6.6-11.4-6-13zm22.2 10.4l6.2 2.7c3.4 1.6 8 4 8.5 4.6-3 0-17 .2-21.6-.7l-2.2-.6c1-.4 1.6-1 4.5-3l4.5-3zm107 2c3.7 0 6.5.8 8 2.2 1 1 2 2.6 2 3.4 0 4-9.8 9.8-20.8 12.2-8 1.7-24.2 1.7-33.3 0L156 107l9.5-4.6c16-7.6 31.6-12 41-12z"/></svg>