<svg xmlns="http://www.w3.org/2000/svg" width="122" height="122" viewBox="0 0 122 122">
  <title>Group</title>
  <g fill="none" fill-rule="evenodd">
    <path fill="#74665B"
          d="M61.5 6C32 6 8 30 8 59.5S32 113 61.5 113 115 89 115 59.5 91 6 61.5 6zM61 21c-21 0-38 17-38 38s17 38 38 38 38-17 38-38-17-38-38-38z"/>
    <path fill="#A17C5F"
          d="M56 44.7V0h10v45l1.3.6 33.3-33.3 7 7-33.2 33.4.6 1.3h47v10H75.3c0 .6-.3 1-.6 1.7l33 33-7 7L68 73l-2 1v48H56V74.3c-.8-.2-1.6-.5-2.3-1l-32.3 32.4-7-7 32.2-32.4-1-2.3H0V54h46l1-2-32.7-32.6 7-7 33 33c.6-.4 1-.6 1.7-.7zM60 68c4.4 0 8-3.6 8-8s-3.6-8-8-8-8 3.6-8 8 3.6 8 8 8z"/>
  </g>
</svg>
