<svg xmlns="http://www.w3.org/2000/svg" width="472" height="489" viewBox="0 0 472 489"
     xmlns:xlink="http://www.w3.org/1999/xlink">
  <title>Group</title>
  <defs>
    <path id="a"
          d="M187.7 118.6C176 102.6 160 84.6 146 69l-10-11.5C121.7 40.8 106.3 23 91 7L50.6 50.6l-6.4 9C33.8 73.8 6 112.4 4.8 117.2v-.3H0c0-3 6.4-14 40.4-61l6.5-9L91 0l1.6 1.8c16 16.5 32 35 47 52.4l10 11.3c14 16 30 34 42 50l-4 3z"/>
  </defs>
  <g fill="none" fill-rule="evenodd">
    <g transform="translate(192 42)">
      <mask id="b" fill="#fff">
        <use xlink:href="#a"/>
      </mask>
      <path fill="#50341E" d="M-4.8 123.6h201V-5h-201v128.6z" mask="url(#b)"/>
    </g>
    <g transform="translate(384 263)">
      <path fill="#91928E" d="M69.4 4.2C61.8 6 13 23.6 8 30c-3.8 5-4 25 9 30s57.2-26.7 63-32c0 0-3-19-10.6-23.8z"/>
      <path fill="#5F5F5C"
            d="M2 51c4.6 8.3 13.2 7.3 13 5-1-3-1-5.4-4-10s-4.7-8.5-6-8.5c-2 0-7.6 5.2-3 13.5zm82-38.7c4 6 4.6 16.2-1.4 18.5-2 .7-7.6-8.2-10.5-14.8C70 9.5 66-.3 70 .5c6.8 1.5 10 6 14 11.8z"/>
      <path fill="#BB9568" d="M33 39c-13 3-11.5 18.7-10.4 21.7 5-.3 28.7-7.8 28.7-7.8C51 45 46 36 33 39z"/>
      <path fill="#7F5B39" d="M36.7 47c-7 1-2.2 7.8-1.4 10.7l8-2.6c-1.3-3-2.3-8-6.6-8z"/>
    </g>
    <path fill="#50341E" d="M292 0s-41.7 344.2-40 359h17L294 .5l-2-.5z"/>
    <path fill="#50341F" d="M388 295l42 40h6l-47-44-1 4z"/>
    <path fill="#F5D36F"
          d="M201.3 327.6c-6-1.2-16-1-19.3 4.8-6.4 10.2 4.5 11.8 5.8 5-4.4.4-3-2.8 2.5-3C195.7 334 232 347 232 347c-4.2-9-22.2-17.8-30.7-19.6z"/>
    <path fill="#0A0A08" d="M190 334.3c3.5 7 3 17.4 3.6 25 14 2 32 2.4 45.6-.8-9.4-22.2-29.2-25.8-49.2-24.2z"/>
    <path fill="#50341E"
          d="M180 86.2l.3 3.5h1.5c-.5 1.2-.7 3-1 5.2 2.4 0 4.3 0 6.5-1 .5-2 .7-4 1.2-5l192 1c0 1 0 3 .2 5h5.4c1-2 1-4 1-5h2l2-5H181z"/>
    <path fill="#F5D36F"
          d="M206.4 105.5S162 269.8 160 291.5l.2 2.4s207.5 33 233.8 6c0 0-19-181 7.2-197 0 0-105.3 23-194.8 1z"/>
    <path fill="#B5412C" d="M193 387c-16 2 3-20 0-31s28 10 102-2c6 4-14 28 26 28s-87 43-128 5z"/>
    <path fill="#FEFEFD" d="M246 366h9v23h-9v-23zm-14 1h9v23h-9v-23zm-15-2h9v23h-9v-23z"/>
    <path fill="#F5D36F"
          d="M244 4.4l5 64.5s23 15 82 9c0 0-1.5-66 1-68 0 0-49.4 11-88-6zM281 445S37.4 333.5 28.8 339.8c-7.6 5.5-7.2 9.6-10.8 17.2-2.2 4.6-8 10-13 6.7C0 360.3-.6 352.4.4 347 2.7 335.3 9 330 23 327c52-8 141.5 18 141.5 18s23.6 67 99.6 50c46-5 92-31.3 92-31.3 9-6 2-25.7 2-25.7l99-32s3 27.4 6 39L281 445z"/>
    <path fill="#BA9568"
          d="M461 345s4 78-8 96c-39 47-89 48.2-192 47-109-1-144-37-181-103-31-46-45-50-45-50s49-3 121 20c3 28 37 63 105 55s99.4-44 124-52c24.6-8 76-13 76-13z"/>
    <path fill="#7F5B39"
          d="M392.6 417.7c-9 3.2-20.5 2-25.6-6.7-4-6.6-4-18 2-23 3.8-3.2 15-6.2 21.2-5 16.7 3.7 19 29 2.4 34.7z"/>
    <path fill="#0A0A08"
          d="M390.7 414c-7 2.5-16 1.4-20-5.2-3-5.2-2.7-13.5 1-17.4 3-3 12.3-5.3 17-4.4 13 3 15 22.5 2 27z"/>
    <path fill="#FFFFFE"
          d="M286.5 435c2.5 0 4.5-1.8 4.5-4s-2-4-4.5-4-4.5 1.8-4.5 4 2 4 4.5 4zm-53 5c2.5 0 4.5-1.8 4.5-4s-2-4-4.5-4-4.5 1.8-4.5 4 2 4 4.5 4zm-46-7c2.5 0 4.5-1.8 4.5-4s-2-4-4.5-4-4.5 1.8-4.5 4 2 4 4.5 4z"/>
    <path fill="#7F5C39"
          d="M121.6 443.2c29.2 28.7 68.7 44 139.4 44.8 103 1 153 0 192-47 12-18 8-96 8-96l-13.8 1.5L427 350s17 66 3 82-67 25-167 27c-93.2 2-136-13.6-141.4-15.8z"/>
    <path fill="#50341F" d="M165 295l-42 40h-6l47-44 1 4z"/>
  </g>
</svg>
